<!DOCTYPE svg PUBLIC "-//W3C//DTD SVG 1.1//EN" "http://www.w3.org/Graphics/SVG/1.1/DTD/svg11.dtd">
<svg xmlns="http://www.w3.org/2000/svg" viewBox="0 0 164 202">
<path fill="#fcfcfc" stroke="#fcfcfc" d="M34.5 6.945c-6.678 2.734-11.512 18.9-7 23.412.825.825 1.5 2.157 1.5 2.96 0 1.977-8.187 21.67-10.581 25.45-6.645 10.495-7.256 11.811-6.729 14.483.513 2.596 4.31 4.184 4.31 1.802 0-.585 1.052-.567 2.75.049 2.067.75 4.861 4.483 11.25 15.034 4.675 7.72 8.805 14.229 9.177 14.464.373.236 5.703-1.447 11.845-3.74 7.419-2.77 11.388-3.805 11.823-3.084.36.597 2.659 6.906 5.107 14.021l4.453 12.934-2.526 3.002c-1.39 1.651-3.128 4.525-3.864 6.385-.736 1.861-2.273 4.426-3.414 5.7l-2.075 2.317 2.208 1.683 2.209 1.683-2.129 3.344-2.129 3.344-18.093-.672c-9.95-.369-18.767-.851-19.592-1.071-2.509-.668-3.473.711-6.68 9.555-1.695 4.675-3.366 9.175-3.712 10-.44 1.047.755 2.338 3.949 4.267 5.084 3.071 6.443 2.864 6.443-.978 0-3.397 5.9-11.216 8.5-11.264 4.215-.077 29.5 3.448 29.5 4.113 0 .385-5.977 2.132-13.282 3.883l-13.281 3.182-1.653 10.649c-1.842 11.868-1.896 11.708 4.57 13.654L42 198.904v-3.985c0-2.229 1.062-6.081 2.41-8.742l2.41-4.756 10.84-1.221c26.674-3.005 34.684-6.246 37.391-15.128.599-1.965 1.473-4.472 1.943-5.572.47-1.1 1.085-17.026 1.366-35.392l.51-33.391 3.815-3.93c7.394-7.618 16.98-14.623 32.58-23.807C149.623 54.526 156 49.925 156 48.019c0-2.163-3.904-4.141-5.981-3.029-1.641.878-2.497.858-3.632-.084-1.232-1.022-2.29-.45-6.187 3.345-5.002 4.873-21.896 13.219-33.028 16.317-3.12.868-9.212 2.725-13.538 4.126-9.256 2.998-10.852 2.176-6.929-3.568 4.819-7.054 2.013-18.01-5.552-21.686-11.102-5.393-19.841 8.432-12.679 20.06 3.725 6.049 3.348 8.043-1.969 10.395-2.734 1.209-4.967 3.025-5.701 4.637C59.712 80.928 46.045 89 43.08 89c-.531 0-5.761-5.638-11.624-12.528-12.266-14.418-11.809-11.508-4.688-29.838 4.476-11.523 4.731-11.919 8.785-13.657 8.22-3.523 12.607-18.908 6.992-24.522-2.535-2.536-4.594-2.922-8.045-1.51m31.638 5.602c-4.371 6.104-4.587 7.136-1.855 8.859 1.278.807 3.23.276 8.44-2.299l6.777-3.348-2.444-1.629c-2.586-1.725-3.334-2.486-5.432-5.524-1.215-1.76-1.604-1.48-5.486 3.941M33.241 11.25c-7.24 7.729-4.667 24.198 2.882 18.451 3.309-2.519 5.869-8.134 5.873-12.88.006-7.382-4.42-10.199-8.755-5.571m37.2 5.305c-1.83 1.467-1.798 1.487.559.365 3.061-1.458 3.628-1.92 2.358-1.92-.537 0-1.849.7-2.917 1.555m2.215 29.578c-5.352 3.111-5.181 13.199.307 18.117 4.793 4.296 10.074 3.27 12.467-2.422 3.747-8.911-5.307-20.036-12.774-15.695m77.033 1.981c-.996.579-2.536.775-3.422.435-1.04-.399-2.881.605-5.189 2.829-4.116 3.965-23.056 12.858-33.578 15.765-3.85 1.063-9.135 2.627-11.744 3.474l-4.744 1.54 2.99 4.346c1.644 2.39 3.444 5.539 3.999 6.998l1.008 2.653 7.746-6.981c4.754-4.286 13.923-10.688 23.745-16.58 21.32-12.789 21.494-12.905 21.497-14.343.004-1.482.006-1.482-2.308-.136M19.643 70.488c-.392 1.023.177 1.936 1.627 2.609 1.255.584 5.924 7.087 10.677 14.872l8.447 13.835 8.053-3.021c4.429-1.662 9.521-3.496 11.315-4.074 2.759-.89 3.492-1.826 4.75-6.062 2.558-8.612 1.26-14.63-1.736-8.054-.835 1.832-4.113 4.063-11.184 7.612L41.59 93.224l-2.045-2.485c-8.127-9.873-17.976-21.288-18.577-21.531-.397-.161-.993.415-1.325 1.28M73 72.764c0 4.916 4.098 6.593 7.586 3.104 3.481-3.481 2.377-5.59-3.157-6.03C73.019 69.487 73 69.5 73 72.764m-1.23 56.986c-.847.963-2.493 3.748-3.656 6.19-2.535 5.32-1.765 6.24 4.886 5.834 3.848-.234 4.542.016 4.789 1.726.175 1.219 2.179 3.007 5.129 4.577l4.841 2.577 3.62-4.465c2.723-3.358 3.621-5.394 3.621-8.213 0-3.706-.054-3.757-4.75-4.459-2.612-.39-7.415-1.791-10.672-3.113-7.038-2.857-5.95-2.766-7.808-.654m-6.742 20.512-3.025 4.867-18.124-.716-18.123-.715 1.614 2.463c1.513 2.31 2.745 2.6 19.872 4.675 26.418 3.202 26.096 3.232 32.094-2.991l4.969-5.155-4.653-2.364c-2.558-1.3-4.652-2.986-4.652-3.746 0-.93-1.137-1.35-3.473-1.284-3.033.086-3.857.716-6.499 4.966m26.722.197c-3.398 4.097-3.402 4.041.25 4.041 2.8 0 3-.25 3-3.75 0-2.062-.112-3.718-.25-3.678-.138.04-1.487 1.564-3 3.387m-11.51 11.477c-3.942 3.565-5.56 4.175-21.644 8.154-17.549 4.34-19.392 5.343-14.568 7.925 1.889 1.011 16.78-.611 33.195-3.616 7.999-1.464 9.016-1.921 12.25-5.501 8.677-9.604.502-15.769-9.233-6.962" fill-rule="evenodd"/>
<path fill="#557f77" stroke="#557f77" d="M33.85 7.52c-6.296 3.42-9.951 17.539-5.88 22.714l1.969 2.504-4.574 11.381c-5.103 12.697-6.715 16.069-8.623 18.036C11.884 67.164 10.123 76 13.983 76c1.018 0 2.01-.478 2.204-1.062 1.141-3.421 5.789 1.63 14.224 15.456C35.312 98.427 39.459 105 39.626 105c.167 0 5.295-1.864 11.397-4.142 6.288-2.347 11.436-3.755 11.884-3.25.435.491 2.889 6.91 5.455 14.265l4.665 13.373-2.459 2.279c-1.353 1.253-3.18 4.004-4.061 6.113-.881 2.109-2.588 4.883-3.792 6.165l-2.189 2.331 2.431 1.834 2.432 1.834-2.56 3.355-2.559 3.356-14.885-.774c-8.187-.425-17.3-.653-20.251-.506l-5.365.267-3.385 9.373c-4.162 11.528-4.214 10.578.748 13.71 4.422 2.792 5.82 2.269 5.853-2.189.029-4.012 6.832-11.587 9.856-10.975 1.463.296 8.275 1.251 15.139 2.123 17.53 2.225 17.432 2.696-1.446 6.97l-12.283 2.781-.59 5.603c-.324 3.082-.885 8.104-1.245 11.16l-.656 5.556 3.986 1.194c5.87 1.759 6.254 1.594 6.254-2.68 0-2.265 1.03-5.718 2.48-8.312l2.481-4.438 13.769-1.756c26.987-3.442 31.437-5.493 34.4-15.853.671-2.347 1.573-4.74 2.003-5.319.431-.579.737-10.479.679-22-.057-11.521.247-26.793.676-33.936l.78-12.988 3.616-3.375c9.381-8.757 16.354-13.805 30.405-22.01 8.366-4.885 16.971-10.543 19.123-12.571l3.911-3.689-2.039-2.04c-1.708-1.707-2.397-1.849-4.226-.87-1.682.9-2.523.89-3.651-.046-1.205-1-2.067-.512-4.862 2.754-4.302 5.026-23.253 13.821-40.897 18.98-6.681 1.953-12.873 3.766-13.76 4.028-2.282.674-3.217-2.499-1.301-4.414 8.807-8.808-.72-27.023-12.158-23.247-7.347 2.424-9.851 13.856-4.594 20.966 3.288 4.448 2.921 8.685-.823 9.507-1.666.366-4.43 2.335-6.25 4.451-1.948 2.266-6.487 5.413-11.266 7.811l-8.004 4.016L31.4 76.625l-11.092-13.15 1.799-5.487c4.943-15.081 9.472-24.481 11.959-24.823 8.653-1.191 14.506-20.045 7.886-25.405-2.602-2.107-4.559-2.165-8.102-.24m32.863 4.454c-6.498 8.704-4.492 11.507 5.234 7.31 6.208-2.678 7.592-4.661 4.042-5.787-1.106-.352-2.693-1.957-3.526-3.568-1.883-3.642-1.366-3.826-5.75 2.045m-32.49-2.303c-1.856.746-4.872 7.158-5.697 12.112-1.763 10.587 7.796 12.49 12.06 2.4 4.155-9.832.835-17.405-6.363-14.512m34.758 2.852c-1.057 1.273-.995 1.42.378.893.902-.347 1.641-1.032 1.641-1.523 0-1.286-.579-1.105-2.019.63m1.403 3.646c-1.879 2.116-1.877 2.119.616.841 3.256-1.668 3.294-1.71 2.2-2.386-.513-.317-1.78.378-2.816 1.545m.705 30.966C62.792 56.04 73.9 72.373 83.251 65.018c4.902-3.856 4.372-13.81-.958-18.002-3.406-2.679-8.649-2.623-11.204.119m77.653.95c-.967.563-2.245.722-2.84.354-.595-.368-2.729.881-4.742 2.776-4.747 4.468-25.663 13.819-38.66 17.283-12.091 3.224-12.485 3.542-9.205 7.441 1.417 1.683 3.147 4.642 3.846 6.575 1.546 4.274.934 4.496 10.734-3.891 4.419-3.782 14.693-10.846 22.83-15.698C148.725 52.181 153 49.32 153 48.01c0-1.283-1.987-1.248-4.258.075M15.583 67.866c-.431.697-.513 1.537-.183 1.867.895.895 1.871-.421 1.387-1.871-.338-1.016-.574-1.016-1.204.004m3.667 1.884c-.971 2.058-.816 2.465 1.24 3.246 1.522.579 5.417 5.85 11.046 14.949C36.319 95.675 40.389 102 40.581 102c.191 0 5.313-1.853 11.38-4.118l11.032-4.119 1.503-5.063c.827-2.785 1.497-6.669 1.489-8.632L65.97 76.5l-3.235 3.628C59.59 83.655 45.505 92 42.697 92c-1.332 0-4.417-3.311-16.823-18.051-5.387-6.4-5.539-6.497-6.624-4.199M73 72.363c0 5.472 4.84 7.681 8.345 3.808 3.486-3.852 2.279-5.565-4.595-6.523-3.669-.511-3.75-.452-3.75 2.715m-.57 56.374c-.588.42-2.445 3.327-4.125 6.461l-3.056 5.698 3.125.721c1.719.397 4.589.611 6.376.476 2.694-.204 3.25.106 3.25 1.814 0 1.464 1.43 2.784 4.943 4.564l4.943 2.505 3.557-4.341c2.943-3.592 3.557-5.143 3.557-8.988V133h-3.525c-1.939 0-6.101-.939-9.25-2.087-7.95-2.899-8.584-3.04-9.795-2.176m-7.463 21.315-3.242 5.052-12.113-.58c-6.661-.319-14.7-.815-17.862-1.102-6.124-.555-6.847.063-4 3.421 1.474 1.739 4.324 2.388 18.062 4.111 27.299 3.424 31.517 2.747 36.509-5.863l1.821-3.141-4.571-2.022c-2.514-1.112-4.571-2.676-4.571-3.475 0-.985-1.093-1.453-3.396-1.453-2.985 0-3.788.611-6.637 5.052M91.12 151l-3.214 4H96.091l-.678-3.75c-.373-2.062-.768-3.862-.879-4-.11-.137-1.646 1.551-3.414 3.75m-3.423 6.807c-2.889.185-5.011.849-5.325 1.666-1.338 3.488-8.393 6.54-24.36 10.539-18.822 4.715-17.937 4.309-15.426 7.083 2.126 2.349 3.576 2.307 24.414-.715 21.006-3.046 23.911-4.619 26.051-14.104 1.035-4.589.714-4.857-5.354-4.469m-70.863 13.686c1.718 1.279 2.629 1.444 3.45.623.821-.821.688-1.116-.502-1.116-.89 0-2.443-.28-3.45-.623-1.301-.442-1.155-.119.502 1.116m18.206 22.553c1.838 1.163 4.96 1.23 4.96.106 0-.466-1.445-.889-3.21-.939-2.33-.066-2.81.162-1.75.833" fill-rule="evenodd"/>
<path fill="#527d75" stroke="#527d75" d="M34.448 7.462c-6.556 2.774-10.705 16.994-6.585 22.567l2.155 2.915-4.623 11.554c-2.543 6.355-6.566 14.511-8.94 18.125-5.162 7.859-5.876 16.461-1.033 12.442 3.009-2.498 6.034.573 15.009 15.238l8.891 14.528 8.089-3.035c12.442-4.669 14.551-5.244 15.462-4.221.453.509 2.928 6.956 5.5 14.328l4.675 13.404-2.023 1.884c-1.113 1.037-2.974 3.781-4.137 6.097-1.163 2.317-3.029 5.211-4.148 6.433l-2.034 2.221 2.24 1.814 2.241 1.813-2.236 3.79c-2.176 3.688-2.359 3.775-6.844 3.245-15.753-1.863-36.076-1.848-36.665.026-.323 1.028-1.904 5.386-3.514 9.684-3.657 9.761-3.728 9.095 1.289 12.087 4.568 2.724 5.714 2.25 5.798-2.401.025-1.417 1.657-4.325 3.765-6.711l3.72-4.211 14.5 1.939c7.975 1.067 15.377 1.949 16.45 1.961 4.565.051-.758 2.12-13.45 5.228l-13.5 3.305-.637 5.495c-.35 3.021-.97 7.855-1.378 10.741l-.742 5.248 3.596 1.502c5.729 2.394 6.661 2.049 6.661-2.47 0-2.186.943-5.914 2.095-8.285l2.095-4.312 16.37-2.259c22.062-3.043 25.731-4.21 29.468-9.368 1.634-2.257 2.972-4.681 2.972-5.388 0-.707.535-2.552 1.188-4.1.786-1.862 1.245-10.771 1.356-26.315.092-12.925.512-28.352.933-34.281l.766-10.782 8.629-7.577c5.585-4.904 14.623-11.122 25.628-17.632 9.35-5.53 18.012-10.96 19.25-12.066 4.229-3.779 1.844-8.801-3.108-6.545-1.879.856-2.943.878-3.903.081-1.014-.842-1.984-.264-4.182 2.491-3.807 4.771-23.439 14.071-38.572 18.271-6.183 1.716-12.738 3.746-14.568 4.51-4.422 1.848-5.91-1.252-2.396-4.993 8.409-8.95-2.532-26.633-13.613-22.003-6.428 2.686-8.252 11.758-3.896 19.378 3.534 6.182 3.352 9.799-.537 10.654-1.736.381-4.187 2.141-5.75 4.129-1.616 2.056-6.183 5.286-11.225 7.94l-8.5 4.475-3.358-3.775c-1.846-2.076-6.86-7.953-11.141-13.06l-7.784-9.284 1.28-4.216c4.502-14.824 10.05-26.1 13.251-26.929 8.161-2.115 13.401-18.917 7.482-23.997-2.734-2.347-4.615-2.668-7.782-1.327m32.266 4.663c-6.183 8.978-4.458 11.453 5.008 7.184 3.178-1.433 5.978-2.776 6.221-2.984.244-.208-.881-1.631-2.5-3.162-1.618-1.531-3.409-3.604-3.979-4.607-.916-1.614-1.464-1.202-4.75 3.569m-33.626-1.219C26.416 18.048 26.661 31 33.468 31c5.849 0 11.588-13.225 8.382-19.316-2.397-4.554-5.017-4.787-8.762-.778m35.317 2.24c-1.895 2.134-1.893 2.139.345.964 1.237-.649 2.25-1.615 2.25-2.145 0-1.421-.479-1.203-2.595 1.181m2.074 2.878c-2.037 2.25-.782 2.649 1.981.629 1.097-.803 1.431-1.602.825-1.977-.56-.346-1.823.261-2.806 1.348m2.631 29.397C63.937 50.408 68.118 67 78.548 67c4.065 0 7.46-3.644 8.144-8.739 1.15-8.579-7.091-16.37-13.582-12.84m68.752 5.07C138.466 54.37 117.125 63.987 103 68.004c-14.48 4.118-13.659 3.66-11.242 6.272 1.931 2.088 5.6 8.679 6.392 11.483.208.733 3.694-1.696 8.353-5.82 4.802-4.251 13.989-10.614 22.997-15.929 23.791-14.036 27.219-17.001 19.307-16.695-3.426.133-4.851.784-6.945 3.176M19.558 67.263c.366.969.12 2.421-.548 3.225-.996 1.2-.741 1.677 1.418 2.661 1.76.802 5.343 5.649 10.822 14.641 4.505 7.393 8.698 13.636 9.318 13.874 1.369.526 20.418-6.414 22.206-8.089 1.513-1.419 4.163-13.459 3.409-15.492-.377-1.017-1.394-.408-3.604 2.16-2.891 3.358-18.715 12.262-20.55 11.562-.438-.168-5.175-5.48-10.526-11.805-12.158-14.372-12.835-15.093-11.945-12.737m-4.567 1.248c-1.005 1.211-.944 1.489.328 1.489 1.866 0 3.087-1.631 1.811-2.42-.497-.307-1.459.112-2.139.931m58.198 3.557c.435 5.883 3.372 7.852 7.209 4.834 3.768-2.964 3.384-7.552-.593-7.088-1.483.173-3.648-.195-4.811-.817-2.016-1.079-2.101-.934-1.805 3.071m-1.868 57.097c-.586.734-2.177 3.686-3.535 6.56l-2.47 5.224 3.092.923c1.701.508 4.442.856 6.092.775 2.287-.112 3.078.328 3.327 1.853.201 1.23 2.125 2.873 5 4.269l4.673 2.27 3.75-4.148c5.222-5.776 5.645-13.891.725-13.891-1.664 0-5.601-.952-8.75-2.116-7.831-2.894-10.643-3.3-11.904-1.719m-.1 15.651c-2.59.249-3.849 1.195-5.991 4.5-3.57 5.509-3.965 5.731-9.23 5.202-14.582-1.465-30-1.579-30-.221 0 4.017 8.525 6.043 36.415 8.655 11.42 1.069 13.465.444 18.495-5.659 4.011-4.866 3.903-5.751-.944-7.69-2.219-.888-4.357-2.399-4.75-3.359-.519-1.265-1.617-1.657-3.995-1.428m20.571 5.221-3.708 4.463 3.559.316c4.467.398 4.548.301 4.17-4.925l-.313-4.318-3.708 4.464m-7.292 7.908c-1.1.451-2.899 1.818-3.998 3.039-3.136 3.487-6.146 4.651-22.932 8.873-17.777 4.471-17.573 4.373-14.981 7.254 2.263 2.514 8.393 2.278 29.28-1.13 16.346-2.667 20.197-5.285 21.712-14.765l.675-4.216-3.878.063c-2.133.035-4.778.432-5.878.882M15 169.972c0 .78 4.406 4.028 5.465 4.028 1.857 0 .018-2.757-2.465-3.694-1.65-.623-3-.773-3-.334m19 23.103c0 .401 1.35 1.2 3 1.775 2.357.822 3 .76 3-.289 0-.733-1.35-1.532-3-1.774s-3-.113-3 .288" fill-rule="evenodd"/>
<path fill="#0d4d45" stroke="#0d4d45" d="M33.375 8.772c-6.034 4.906-8.226 13.59-5.133 20.333 2.03 4.423 2.276 4.607 5.083 3.802 8.744-2.508 14.302-17.417 8.712-23.368-2.771-2.949-5.663-3.205-8.662-.767m.739.861c-5.117 3.584-8.036 16.302-4.543 19.796 3.883 3.882 10.009.255 12.26-7.258 3.053-10.192-1.2-17.103-7.717-12.538m32.569 3.924c-5.5 7.872-3.662 9.493 5.5 4.85l5.117-2.593-2.543-2.157c-1.399-1.186-2.932-2.918-3.407-3.849-.717-1.403-1.513-.763-4.667 3.749m1.558-.571C66.41 15.917 66.73 16.554 69 14.5c2.031-1.838 2.62-3.5 1.241-3.5-.418 0-1.318.894-2 1.986m1.62 2.981c-2.586 2.154-1.466 2.594 2.634 1.035 1.444-.549 2.347-1.449 2.006-2-.906-1.466-1.993-1.24-4.64.965m-5.351 3.049c.346.559 1.047.758 1.559.441C67.456 18.6 67.198 18 65.441 18c-.857 0-1.276.457-.931 1.016m7.731 25.309c-5.907 3.281-7.443 10.143-3.801 16.978C71.79 67.589 71.982 74 68.82 74c-1.286 0-3.85 1.791-6.25 4.365C58.82 82.387 45.853 90 42.754 90c-1.067 0-9.28-9.153-20.637-23-1.128-1.375-2.065-2.114-2.084-1.642-.018.471 4.354 6.02 9.717 12.33 5.362 6.31 10.335 12.224 11.05 13.142 1.797 2.31 19.547-6.666 21.8-11.024 3.556-6.877 5.441-2.308 2.934 7.112-1.808 6.796-2.202 7.144-12.534 11.076a8962.414 8962.414 0 0 0-10.631 4.051c-1.923.735-3.002-.606-10.988-13.655-6.363-10.397-9.51-14.635-11.178-15.054-1.665-.418-2.131-1.043-1.648-2.209.371-.895.804-3.007.962-4.694.159-1.687.77-4.812 1.358-6.944 1.273-4.607.791-5.838-.658-1.681-.558 1.6-2.58 4.96-4.493 7.467-4.146 5.431-4.24 10.144-.181 9.125 4.519-1.134 6.273.601 15.053 14.897 4.798 7.812 8.856 14.37 9.018 14.575.163.204 5.081-1.484 10.93-3.75 5.85-2.267 11.157-4.119 11.796-4.115 1.186.007 10.673 26.049 10.665 29.274-.003.98-.657 2.032-1.453 2.338-.797.305-2.899 3.441-4.671 6.968-1.772 3.527-3.665 6.413-4.207 6.413-.541 0-.239.823.671 1.829 2.097 2.317 2.08 3.636-.095 7.353l-1.75 2.99-11-.604a4430.97 4430.97 0 0 1-20.75-1.194c-7.827-.473-9.757-.322-9.783.768-.018.747-1.535 5.305-3.37 10.129l-3.337 8.77 4.12 2.463 4.12 2.462.771-3.733c.424-2.053 2.253-5.487 4.063-7.632l3.293-3.898 13.936 1.701c25.122 3.066 25.225 3.217 5.53 8.037-7.185 1.758-13.308 3.441-13.607 3.74-.396.395-3.486 18.47-3.486 20.388 0 .63 9.013 3.223 9.106 2.62.058-.379.029-1.883-.065-3.343-.095-1.46.969-4.906 2.363-7.657 2.809-5.542 1.597-5.071 18.596-7.233 10.618-1.351 22.888-3.826 25.262-5.096 2.964-1.587 7.738-8.959 7.738-11.951 0-1.535.377-3.024.839-3.309.461-.286 1.145-14.927 1.52-32.537s.95-33.359 1.278-34.998c.982-4.912 16.326-17.247 35.951-28.902 18.344-10.894 21.553-13.422 19.564-15.411-2.71-2.71-9.39-1.492-12.857 2.344-3.656 4.045-23.631 13.641-33.979 16.322-3.319.86-9.473 2.719-13.677 4.131-4.203 1.412-8.092 2.289-8.641 1.95-1.507-.932-1.196-5.09.485-6.485 8.977-7.45-3.101-26.321-13.242-20.689m.036 1.648c-9.714 5.923-1.45 25.241 8.954 20.931 7.797-3.229 7.626-16.603-.271-21.268-3.558-2.102-4.759-2.056-8.683.337m77.391 1.193c-.984.551-2.491.732-3.348.403-.977-.375-2.917.722-5.209 2.946-4.673 4.536-24.263 13.596-36.756 16.999-5.212 1.42-10.556 2.992-11.875 3.494l-2.399.912 3.46 5.14c1.902 2.828 3.466 5.658 3.474 6.29.059 4.418 1.971 3.753 10.159-3.532 5.272-4.69 13.943-10.743 23.355-16.304C149.981 52.023 153 49.995 153 48.423c0-1.909-1.295-2.397-3.332-1.257M15.072 67.865c-.927 1.732-.864 2.135.334 2.135 1.949 0 2.66-1.275 1.636-2.933-.64-1.034-1.086-.853-1.97.798m57.716 3.823C72.331 75.604 74.542 79 77.548 79c2.154 0 6.64-5.069 5.988-6.767-.295-.768-.536-1.782-.536-2.252 0-.471-1.758-.831-3.907-.802-2.149.03-4.35-.22-4.891-.554-.555-.343-1.172.994-1.414 3.063m-.158 56.499c-.913.511-3.013 3.61-4.667 6.887l-3.008 5.958 2.762 1.051c1.519.577 4.229.774 6.023.438 2.804-.526 3.26-.33 3.26 1.403 0 1.449 1.545 2.771 5.503 4.709l5.502 2.694 3.456-3.913c2.96-3.352 3.462-4.648 3.497-9.028l.042-5.114-4.459-.611c-2.452-.336-7.112-1.69-10.355-3.007-4.11-1.67-6.399-2.115-7.556-1.467m-7.713 21.102-3.065 4.981-17.926-.718c-15.203-.61-17.926-.502-17.926.71 0 4.291 7.173 6.111 34.734 8.817 13.972 1.372 16.576.495 21.797-7.334l2.503-3.754-4.478-2.176c-2.463-1.197-4.609-2.824-4.767-3.616-.18-.894-1.714-1.525-4.048-1.666-3.517-.211-3.955.094-6.824 4.756M92 149.214c-4.491 5.575-4.493 5.786-.05 5.786H96v-4.5c0-5.276-.624-5.477-4-1.286m-10.935 11.219c-4.27 4.406-6.068 5.106-24.27 9.457-8.322 1.989-15.304 4.138-15.516 4.774-.737 2.209 3.717 5.205 7.074 4.76 35.819-4.749 38.709-5.463 42.137-10.409 1.474-2.128 2.927-5.702 3.227-7.942l.546-4.073h-4.935c-4.31 0-5.358.435-8.263 3.433M15 169.972c0 .78 4.406 4.028 5.465 4.028 1.857 0 .018-2.757-2.465-3.694-1.65-.623-3-.773-3-.334m18.457 23.097c-.25.405.962 1.23 2.693 1.834 3.934 1.371 3.85 1.377 3.85-.29 0-1.462-5.754-2.82-6.543-1.544" fill-rule="evenodd"/>
</svg>