<!DOCTYPE svg PUBLIC "-//W3C//DTD SVG 1.1//EN" "http://www.w3.org/Graphics/SVG/1.1/DTD/svg11.dtd">
<svg xmlns="http://www.w3.org/2000/svg" viewBox="0 0 512 512">
<path fill="#fb7344" stroke="#fb7344" d="M223.258 2.576C116.338 15.529 26.915 97.978 5.097 203.72-24.694 348.106 71.993 485.956 219 508.689c16.552 2.56 59.805 2.543 76-.03C422.152 488.46 510.748 384.962 512.565 254.5c.159-11.387-.076-18.923-.544-17.5-.704 2.142-.836 1.891-.921-1.757-.055-2.341-.779-8.774-1.608-14.296C488.723 82.666 361.751-14.201 223.258 2.576M.42 255.5c-.001 11 .145 15.636.325 10.303.179-5.333.18-14.333.001-20C.568 240.136.421 244.5.42 255.5" fill-rule="evenodd"/>
<path fill="#fbfbfb" stroke="#fbfbfb" d="M234 1.592C167.308 9.284 119.13 31.818 74.974 75.974 25.415 125.533.534 185.705.534 256c0 86.759 41.055 163.563 113.36 212.069C224.892 542.531 378.919 517.504 458.963 412c31.037-40.909 51.575-95.616 52.107-138.801.051-4.108.31-5.141.93-3.699.522 1.214.828-4.488.78-14.5-.044-9.075-.357-14.475-.696-12-.509 3.723-.738 2.686-1.325-6.009-7.285-107.817-89.124-203.324-196.251-229.027C292.214 2.615 252.429-.534 234 1.592m6.959 22.501c-12.001.686-35.956 4.169-38.194 5.553-.595.367.686 1.589 2.889 2.757 16.429 8.708 29.396 26.142 35.191 47.311l1.857 6.786 21.899.5c12.045.275 22.236.361 22.649.191.413-.17.75-13.951.75-30.625V26.25l-3.25-.659c-1.788-.363-7.525-.882-12.75-1.155-5.225-.272-11.525-.622-14-.778-2.475-.155-10.143.04-17.041.435M311 60.759v29.759l13.25 2.698c7.288 1.483 17.3 3.893 22.25 5.354a4412.32 4412.32 0 0 0 10.589 3.118c1.183.343 2.153-1.087 3.801-5.606 1.216-3.337 4.461-9.429 7.209-13.538 4.189-6.264 7.427-9.575 17.258-17.654C389.263 61.68 323.286 31 312.478 31 311.207 31 311 35.17 311 60.759m-162.5-11.16c-39.067 20.475-71.642 51.173-93.337 87.959-5.416 9.183-5.421 9.178 3.298 3.404 37.353-24.736 95.383-44.512 149.796-51.048 8.918-1.072 10.679-1.559 10.298-2.853-.253-.859-.764-2.911-1.136-4.561-1.146-5.09-7.518-16.394-12.135-21.529-8.424-9.369-21.638-14.827-37.784-15.607l-10-.482-9 4.717m253 32.581c-9.356 4.891-15.5 12.051-19.599 22.837l-1.93 5.08 5.765 2.514c26.875 11.719 53.511 28.283 79.261 49.288l4.166 3.398-6.52-13.011c-11.695-23.34-29.143-47.075-47.094-64.068-9.8-9.276-8.733-8.818-14.049-6.038m-157.802 36.57c-1.755 25.662-16.253 56.787-44.598 95.75-14.663 20.155-30.175 38.961-70.264 85.184-37.295 43.002-52.418 63.075-58.777 78.017-4.469 10.503-4.175 13.503 2.094 21.349 32.618 40.827 75.159 68.659 124.703 81.588 7.781 2.03 14.291 3.505 14.466 3.277 4.485-5.841 31.636-59.078 38.721-75.922 25.13-59.742 36.919-148.944 36.953-279.593l.004-17.101-9.154-.649c-5.034-.358-14.643-.65-21.352-.65h-12.198l-.598 8.75M212 112.659c-1.375.212-8.531 1.315-15.902 2.449-68.405 10.531-136.074 43.06-162.623 78.174C21.63 208.949 19.468 272.653 29.446 312c3.975 15.674 13.279 40.335 18.654 49.445l2.248 3.811 2.076-3.754c9.735-17.604 34.642-50.4 56.58-74.502C181.86 206.957 221 147.175 221 115.938c0-4.229-.851-4.539-9-3.279m97.68 38.575c-2.897 167.542-17.797 238.176-69.023 327.23-3.305 5.745-4.244 8.179-3.369 8.735 1.733 1.102 30.546.966 41.212-.194 45.242-4.921 91.373-24.284 124.5-52.255 10.024-8.464 15.098-19.837 17.928-40.184 4.428-31.843-6.403-75.28-33.68-135.066-17.79-38.991-27.254-72.845-31.721-113.468-.815-7.407-1.214-15.135-.888-17.173l.592-3.705-6.865-2.011c-12.764-3.737-17.839-5.017-26.366-6.648-4.675-.895-9.214-1.829-10.088-2.077-1.421-.403-1.654 3.446-2.232 36.816m67.977-12.984c4.489 40.881 12.963 72.89 28.262 106.75 26.053 57.661 37.369 95.409 38.777 129.353l.616 14.854 5.401-8.354c25.215-38.998 37.491-84.357 35.94-132.791-1.128-35.199-.622-33.997-23.817-56.599-21.951-21.389-43.476-36.798-70.691-50.607-15.97-8.103-15.074-7.942-14.488-2.606M.407 256c0 9.075.152 12.788.337 8.25.185-4.538.185-11.963 0-16.5-.185-4.537-.337-.825-.337 8.25" fill-rule="evenodd"/>
<path fill="#e2dfdf" stroke="#e2dfdf" d="M235.5 1.605C143.79 11.02 69.141 60.48 28.908 138.487-58.767 308.479 64.722 511.043 256 510.996 391.326 510.962 504.959 404.384 510.814 272c.565-12.756.788-14.349 1.263-9 .377 4.24.579 1.459.582-8 .003-10.108-.196-12.683-.659-8.5l-.664 6-.168-7.03C508.522 134.832 421.343 31.272 310.5 7.096c-20.928-4.564-57.761-7.261-75-5.491m.289 22.478c-5.342.441-14.883 1.728-21.203 2.86C208.265 28.074 202.848 29 202.547 29c-1.917 0 .176 2.076 4.423 4.387 14.539 7.913 28.791 27.674 33.698 46.724L242.443 87h16.632c9.147 0 19.398.289 22.778.642l6.147.643V57.21c0-28.721-.133-31.116-1.75-31.62-6.468-2.014-34.281-2.845-50.461-1.507m74.859 15.785c-.351 5.297-.64 18.93-.643 30.294L310 90.824l4.25.67c8.47 1.334 30.946 6.692 37.682 8.983l6.896 2.345.648-2.584c2.488-9.911 14.255-26.409 23.734-33.275l3.718-2.694-8.214-5.2c-16.306-10.324-41.805-21.673-60.321-26.848l-7.107-1.986-.638 9.633M146.5 50.338c-36.525 19.342-70.715 51.733-91.104 86.313C52.428 141.684 50 146.03 50 146.31c0 .279 3.262-1.633 7.25-4.248 33.353-21.878 82.347-40.526 127.25-48.434C192.913 92.147 215.8 89 218.163 89c3.486 0-4.373-18.056-11.888-27.312-8.116-9.995-24.725-16.708-41.235-16.667-8.369.021-8.74.128-18.54 5.317m254.067 31.824c-5.812 3.064-13.779 11.575-16.698 17.838-3.191 6.846-4.268 11-2.851 11 2.146 0 28.328 13.063 39.72 19.818 13.677 8.11 29.668 19.333 40.099 28.144 4.035 3.409 7.517 6.018 7.736 5.798.852-.852-11.781-24.796-18.491-35.05-9.687-14.803-16.453-23.126-30.453-37.46-12.796-13.102-13.07-13.247-19.062-10.088m-156.568 32.017c-.008 24.416-15.284 58.839-43.411 97.821-15.961 22.121-24.569 32.518-83.961 101.408-32.093 37.226-46.964 59.067-49.473 72.662l-1.002 5.43 5.638 7.5c19.879 26.442 55.09 54.153 87.082 68.533 16.636 7.477 50.823 18.162 52.502 16.408 1.026-1.072 20.928-37.577 26.001-47.691 35.34-70.466 46.429-134.709 49.495-286.75.421-20.9.586-38.225.367-38.5-.22-.275-10.038-.645-21.818-.821L244 109.858l-.001 4.321m-34.499-1.49c-77.023 10.004-153.595 45.67-177.785 82.811-1.75 2.686-3.27 7.449-4.628 14.5-9.769 50.737-3.62 100.568 18.012 145.969l4.988 10.47 3.581-6.47c8.56-15.462 30.916-45.045 50.988-67.469 79.446-88.758 113.442-139.501 116.068-173.25l.565-7.25-4.395.15c-2.417.082-5.744.325-7.394.539m100.115 34.998c-3.482 173.06-15.726 233.021-66.522 325.762-3.901 7.123-7.093 13.31-7.093 13.75 0 1.42 36.314.877 48.699-.728 43.361-5.619 85.81-24.209 119.537-52.35 17.362-14.487 22.66-53.61 12.731-94.018-5.083-20.691-17.947-55.528-31.24-84.603-17.451-38.171-28.589-81.449-30.592-118.866l-.635-11.866-6-1.912c-6.918-2.205-28.063-7.37-34.102-8.33l-4.103-.652-.68 33.813m67.901-8.519c4.687 41.191 13.628 74.133 29.618 109.121 24.652 53.942 36.924 95.972 37.228 127.503l.138 14.292 2.188-2.731c3.791-4.731 14.183-22.785 18.713-32.508 16.679-35.804 23.848-73.456 21.485-112.845-1.582-26.356-2.197-28.387-11.79-38.895-22.882-25.064-52.128-47.104-82.97-62.526-15.791-7.896-15.343-7.853-14.61-1.411M.397 256c0 7.975.156 11.238.346 7.25.189-3.988.189-10.512 0-14.5-.19-3.988-.346-.725-.346 7.25" fill-rule="evenodd"/>
<path fill="#040404" stroke="#040404" d="M238.5 1.586c-27.064 2.695-43.05 5.929-64.5 13.046C47.698 56.537-24.741 189.874 8.447 319.362 47.138 470.326 212.424 551.405 355.98 489.839c78.007-33.455 134.974-105.461 149.943-189.527 25.172-141.373-71.55-275.119-214.355-296.405-12.421-1.852-43.94-3.23-53.068-2.321m-6 22.4c-7.523.803-21.654 3.123-29.5 4.844l-3.5.767 6.494 3.452c14.026 7.453 26.631 23.891 33.06 43.113l3.602 10.768 22.672.427 22.672.426V25.26l-4.75-.645c-8.113-1.102-42.337-1.526-50.75-.629M310 60.35v30.508l5.75 1.137c10.771 2.128 31.735 7.291 37.157 9.151 2.973 1.02 5.5 1.854 5.614 1.854.114 0 .998-2.138 1.963-4.75 4.485-12.131 14.885-26.225 23.098-31.3 4.382-2.709 4.585-2.479-9.748-11.049-17.911-10.71-44.958-22.034-60.584-25.367l-3.25-.693V60.35M159 45.021c-15.652 1.811-59.382 33.94-80.576 59.199-11.577 13.797-30.263 41.274-28.957 42.58.185.186 4.319-2.231 9.185-5.371 39.675-25.602 94.03-44.182 148.682-50.825 6.508-.791 12.022-1.627 12.252-1.857 1.526-1.526-6.204-18.135-11.95-25.675-9.494-12.459-30.284-20.175-48.636-18.051m241.337 37.041c-7.972 3.946-17.851 16.697-19.75 25.491-.657 3.041-.617 3.073 9.127 7.49 27.288 12.369 56.917 31.131 75.386 47.737 6.222 5.594 6.175 5.289-1.548-10.013-12.028-23.829-26.828-44.253-45.302-62.517-11.185-11.058-11.668-11.279-17.913-8.188m-155.604 27.561c-.315.51-1.052 5.191-1.638 10.402-4.377 38.936-28.633 79.417-91.016 151.9a81252.118 81252.118 0 0 1-34.452 40c-34.653 40.202-48.726 61.086-51.12 75.86-.683 4.213-.565 4.446 6.938 13.68 32.173 39.592 75.745 67.609 124.555 80.088 14.472 3.7 12.445 5.034 24.013-15.803 43.91-79.097 56.627-129.04 62.956-247.25 1.248-23.316 3.373-107.491 2.73-108.134-.945-.945-42.398-1.662-42.966-.743m-29.233 2.044c-79.467 9.725-152.722 42.312-182.492 81.18-8.977 11.72-13.654 63.896-8.62 96.153 3.623 23.214 10.376 45.578 20.072 66.468 5.338 11.501 5.614 11.661 9.069 5.253 4.147-7.691 13.743-21.855 22.507-33.221 7.561-9.806 11.425-14.371 55.027-65 63.316-73.521 86.618-110.981 90.355-145.25.748-6.861 1.182-6.452-5.918-5.583m94.492 5.737c-.004 2.253-.452 22.096-.995 44.096-4.093 165.857-16.257 221.347-69.855 318.651l-4.214 7.652 10.453.712c51.897 3.537 112.829-16.771 156.619-52.202 9.754-7.891 12.497-12.486 16.553-27.729 10.018-37.642 1.345-76.817-35.332-159.584-15.805-35.667-28.175-87.46-28.213-118.128l-.008-6.629-3.75-1.023c-17.894-4.882-27.834-7.38-34-8.543l-7.25-1.368-.008 4.095M377 135.45c0 5.329 3.352 27.967 6.14 41.465 4.972 24.071 13.185 48.53 24.927 74.231 23.957 52.441 35.858 94.046 36.062 126.074.048 7.579.207 13.78.353 13.78.604 0 10.674-16.101 14.941-23.888 24.629-44.954 33.703-98.077 25.371-148.528l-1.15-6.967-15.572-15.667c-26.243-26.402-54.558-46.483-84.463-59.901L377 133.084v2.366" fill-rule="evenodd"/>
</svg>