<!DOCTYPE svg PUBLIC "-//W3C//DTD SVG 1.1//EN" "http://www.w3.org/Graphics/SVG/1.1/DTD/svg11.dtd">
<svg xmlns="http://www.w3.org/2000/svg" viewBox="0 0 164 202">
<path fill="#fbfbfb" stroke="#fbfbfb" d="M32.509 8.171c-5.625 4.426-8.783 18.412-5.009 22.186 2.102 2.102 1.942 3.164-1.921 12.699-5.489 13.549-7.202 16.983-8.077 16.19-.452-.41-.535-.242-.183.375.352.616-.294 2.191-1.435 3.5C10.955 68.773 9.964 76 14.117 76c1.035 0 1.883-.411 1.883-.913 0-.517 1.193-.457 2.75.139 2.003.766 4.88 4.527 10.595 13.851 4.314 7.04 8.38 13.532 9.035 14.428 1.077 1.473 2.274 1.224 12.501-2.593 7.51-2.804 11.529-3.858 11.964-3.137.36.597 2.659 6.906 5.107 14.021l4.453 12.934-2.526 3.002c-1.39 1.651-3.128 4.525-3.864 6.385-.736 1.861-2.273 4.426-3.414 5.7l-2.075 2.317 2.208 1.683 2.209 1.683-2.121 3.33-2.12 3.33-19.057-.725c-10.481-.399-19.677-.773-20.436-.83-.878-.067-2.755 3.735-5.172 10.476l-3.794 10.58 4.447 2.686c4.954 2.993 6.31 2.765 6.31-1.062 0-1.428 1.118-4.062 2.485-5.854 4.896-6.42 4.048-6.208 17.136-4.281 6.533.962 13.341 1.772 15.129 1.8 6.605.102 2.893 1.973-10.085 5.083l-13.335 3.196-1.203 8.636c-.661 4.749-1.438 9.76-1.726 11.135-.482 2.299-.077 2.63 5.037 4.119L42 198.738v-3.902c0-2.159 1.094-6.062 2.449-8.735l2.449-4.832 7.301-.697c28.9-2.756 38.023-6.217 40.852-15.5.599-1.965 1.473-4.472 1.943-5.572.47-1.1 1.085-17.026 1.366-35.392l.51-33.391 3.815-3.93C111.313 77.898 140.355 58 144.701 58c.623 0 1.282-.337 1.466-.75.183-.413 2.212-2.025 4.508-3.584 5.139-3.489 5.995-5.44 3.486-7.95-1.593-1.592-2.287-1.719-4.103-.747-1.695.907-2.528.886-3.707-.093-1.28-1.062-2.179-.571-5.657 3.083-2.274 2.39-6.623 5.441-9.664 6.78a908.891 908.891 0 0 0-11.805 5.327c-3.452 1.591-8.852 3.61-12 4.487-3.149.876-9.265 2.74-13.591 4.141-9.205 2.981-10.842 2.175-7.02-3.458 6.332-9.331.052-22.691-10.667-22.691-9.575 0-13.312 11.656-7.007 21.859 2.595 4.198 2.754 8.595.31 8.6-2.698.006-7.994 3.615-8.737 5.954C59.923 80.818 45.787 89 43.164 89c-.485 0-4.207-3.886-8.272-8.635A2887.794 2887.794 0 0 0 24.25 67.994c-4.13-4.748-4.193-4.098 1.898-19.765 5.061-13.018 5.24-13.307 9.38-15.139 8.136-3.598 12.552-19.101 7.017-24.635-3.031-3.032-6.42-3.128-10.036-.284m34.324 3.457c-4.751 6.584-4.93 6.956-4.229 8.782.906 2.361 3.739 1.95 10.664-1.545l6.21-3.135-2.432-1.615c-2.571-1.707-3.326-2.472-5.406-5.487-1.199-1.738-1.541-1.525-4.807 3m-33.592-.378c-7.24 7.729-4.667 24.198 2.882 18.451C43.095 24.393 44.222 9 37.639 9c-1.26 0-3.239 1.012-4.398 2.25m37.2 5.305c-1.83 1.467-1.798 1.487.559.365 3.061-1.458 3.628-1.92 2.358-1.92-.537 0-1.849.7-2.917 1.555m.954 30.782c-7.202 6.195.548 22.151 9.287 19.119 6.666-2.312 7.483-13.239 1.396-18.678-3.797-3.392-7.094-3.528-10.683-.441m78.294.809c-.996.562-2.536.743-3.422.403-1.04-.399-2.881.605-5.189 2.829-4.116 3.965-23.056 12.858-33.578 15.765-3.85 1.063-9.135 2.627-11.744 3.474l-4.744 1.54 2.787 4.171c1.533 2.295 3.352 5.477 4.041 7.072l1.254 2.901 3.203-2.976c1.762-1.637 5.003-4.654 7.203-6.704s7.825-6.008 12.5-8.794c4.675-2.787 9.625-5.853 11-6.813s5.65-3.465 9.5-5.567c3.85-2.101 7.599-4.415 8.33-5.142 1.885-1.874 1.074-3.408-1.141-2.159M15 69.059c0 .582.45.781 1 .441s1-.816 1-1.059S16.55 68 16 68s-1 .477-1 1.059m4.406 1.093c-.606.98 1.221 3.071 3.55 4.062.37.157 3.294 4.561 6.498 9.786l8.372 13.656 2.546 4.156 8.064-3.015c4.435-1.659 9.514-3.434 11.287-3.946 2.763-.797 3.441-1.664 4.75-6.072 2.591-8.724 1.327-14.823-1.697-8.186-1.032 2.264-20.291 13.336-21.255 12.219-.148-.172-2.173-2.562-4.5-5.312a1489.23 1489.23 0 0 0-8.877-10.366c-2.554-2.952-5.004-5.989-5.444-6.75-.973-1.685-2.337-1.781-3.294-.232M73 72.688c0 5.9 7.773 6.752 9.583 1.051.833-2.625-.312-3.465-5.333-3.913-4.204-.375-4.25-.344-4.25 2.862m-1.229 57.062c-.846.963-2.531 3.724-3.744 6.136-2.652 5.272-1.809 6.275 4.973 5.913 3.81-.203 4.545.063 4.794 1.731.173 1.158 2.298 3.082 5.157 4.668l4.863 2.697 3.593-4.611C94.062 142.876 95 140.7 95 137.949c0-3.674-.061-3.731-4.75-4.432-2.612-.39-7.415-1.791-10.672-3.113-7.038-2.857-5.95-2.766-7.807-.654m-6.703 20.447L62.083 155l-5.792-.084c-3.185-.046-10.966-.413-17.291-.815-12.673-.806-13.677-.581-11.196 2.515 1.468 1.832 4.05 2.404 19.196 4.253 24.72 3.018 26.087 2.95 31.05-1.533 6.522-5.892 6.664-6.812 1.44-9.341-2.469-1.195-4.49-2.764-4.49-3.485 0-.85-1.224-1.277-3.473-1.214-3.026.086-3.858.718-6.459 4.901m26.682.262c-3.411 4.112-3.409 4.134.25 4.085 2.793-.037 3-.298 3-3.792 0-2.064-.112-3.72-.25-3.68-.138.04-1.487 1.564-3 3.387m-9.344 9.645c-3.705 4.094-10.086 6.708-25.584 10.48-14.342 3.49-15.595 3.971-14.7 5.644.538 1.005 1.406 1.564 1.928 1.241.523-.323.95-.083.95.533 0 .741 1.44.927 4.25.55 18.487-2.48 32.729-4.743 35.25-5.602 4.097-1.395 8.5-7.41 8.5-11.611 0-3.273-.086-3.339-4.345-3.339-3.146 0-4.87.58-6.249 2.104m-45.673 34.02c.679.684 1.486.991 1.793.683.308-.308-.247-.867-1.233-1.243-1.425-.542-1.54-.428-.56.56" fill-rule="evenodd"/>
<path fill="#c6ddd9" stroke="#c6ddd9" d="M33.85 7.52c-6.296 3.42-9.951 17.539-5.88 22.714l1.969 2.504-4.574 11.381c-5.103 12.697-6.715 16.069-8.623 18.036C11.884 67.164 10.123 76 13.983 76c1.018 0 2.01-.478 2.204-1.062 1.141-3.421 5.789 1.63 14.224 15.456C35.312 98.427 39.469 105 39.648 105c.179 0 5.117-1.8 10.974-4 11.807-4.435 12.264-4.533 12.857-2.75.228.688 2.483 7.031 5.009 14.097l4.594 12.848-2.486 2.304c-1.368 1.268-3.208 4.03-4.089 6.139-.881 2.109-2.588 4.883-3.792 6.165l-2.189 2.331 2.431 1.834 2.432 1.834-2.56 3.355-2.559 3.356-14.885-.774c-8.187-.425-17.3-.653-20.251-.506l-5.365.267-3.385 9.373c-4.162 11.528-4.214 10.578.748 13.71 4.422 2.792 5.82 2.269 5.853-2.189.029-4.012 6.832-11.587 9.856-10.975 1.463.296 8.275 1.251 15.139 2.123 17.53 2.225 17.432 2.696-1.446 6.97l-12.283 2.781-.59 5.603c-.324 3.082-.883 8.089-1.242 11.126l-.652 5.522 5.117 1.636L42 198.816v-4.282c0-2.687.914-5.918 2.455-8.674l2.454-4.392 13.796-1.805c27.148-3.553 31.465-5.547 34.425-15.896.671-2.347 1.573-4.74 2.003-5.319.431-.579.737-10.479.679-22-.057-11.521.247-26.793.676-33.936l.78-12.988 3.616-3.375c9.381-8.757 16.354-13.805 30.405-22.01 8.366-4.885 16.971-10.543 19.123-12.571l3.911-3.689-2.039-2.04c-1.708-1.707-2.397-1.849-4.226-.87-1.682.9-2.523.89-3.651-.046-1.205-1-2.067-.512-4.862 2.754-4.302 5.026-23.253 13.821-40.897 18.98-6.681 1.953-12.873 3.766-13.76 4.028-2.282.674-3.217-2.499-1.301-4.414 8.807-8.808-.72-27.023-12.158-23.247-7.347 2.424-9.851 13.856-4.594 20.966 3.288 4.448 2.921 8.685-.823 9.507-1.666.366-4.43 2.335-6.25 4.451-1.948 2.266-6.487 5.413-11.266 7.811l-8.004 4.016L31.4 76.625l-11.092-13.15 1.799-5.487c4.943-15.081 9.472-24.481 11.959-24.823 8.653-1.191 14.506-20.045 7.886-25.405-2.602-2.107-4.559-2.165-8.102-.24m32.863 4.454c-6.498 8.704-4.492 11.507 5.234 7.31 6.208-2.678 7.592-4.661 4.042-5.787-1.106-.352-2.693-1.957-3.526-3.568-1.883-3.642-1.366-3.826-5.75 2.045m-32.49-2.303c-1.856.746-4.872 7.158-5.697 12.112-1.763 10.587 7.796 12.49 12.06 2.4 4.155-9.832.835-17.405-6.363-14.512m34.758 2.852c-1.057 1.273-.995 1.42.378.893.902-.347 1.641-1.032 1.641-1.523 0-1.286-.579-1.105-2.019.63m1.403 3.646c-1.879 2.116-1.877 2.119.616.841 3.256-1.668 3.294-1.71 2.2-2.386-.513-.317-1.78.378-2.816 1.545m1.104 30.486c-8.819 8.819 2.214 25.873 11.84 18.302 4.926-3.875 4.359-13.698-1.035-17.941-3.104-2.442-8.543-2.623-10.805-.361m77.254 1.43c-.967.563-2.245.722-2.84.354-.595-.368-2.729.881-4.742 2.776-4.747 4.468-25.663 13.819-38.66 17.283-12.091 3.224-12.485 3.542-9.205 7.441 1.417 1.683 3.147 4.642 3.846 6.575 1.546 4.274.934 4.496 10.734-3.891 4.419-3.782 14.693-10.846 22.83-15.698C148.725 52.181 153 49.32 153 48.01c0-1.283-1.987-1.248-4.258.075M15.583 67.866c-.431.697-.513 1.537-.183 1.867.895.895 1.871-.421 1.387-1.871-.338-1.016-.574-1.016-1.204.004m3.667 1.884c-.971 2.058-.816 2.465 1.24 3.246 1.522.579 5.417 5.85 11.046 14.949C36.319 95.675 40.389 102 40.581 102c.191 0 5.287-1.844 11.323-4.097l10.974-4.097 1.561-4.581c.859-2.52 1.554-6.414 1.546-8.653L65.97 76.5l-3.235 3.628C59.59 83.655 45.505 92 42.697 92c-1.332 0-4.417-3.311-16.823-18.051-5.387-6.4-5.539-6.497-6.624-4.199M73 72.363c0 5.472 4.84 7.681 8.345 3.808 3.486-3.852 2.279-5.565-4.595-6.523-3.669-.511-3.75-.452-3.75 2.715m-.652 56.374c-.634.42-2.483 3.329-4.11 6.464l-2.957 5.702 3.11.718c1.71.395 4.572.607 6.359.472 2.694-.204 3.25.106 3.25 1.814 0 1.464 1.43 2.784 4.943 4.564l4.943 2.505 3.557-4.341c2.943-3.592 3.557-5.143 3.557-8.988V133h-3.525c-1.939 0-6.101-.939-9.25-2.087-7.963-2.904-8.575-3.039-9.877-2.176m-7.381 21.315-3.242 5.052-12.113-.58c-6.661-.319-14.7-.815-17.862-1.102-6.124-.555-6.847.063-4 3.421 1.474 1.739 4.324 2.388 18.062 4.111 27.299 3.424 31.517 2.747 36.509-5.863l1.821-3.141-4.571-2.022c-2.514-1.112-4.571-2.676-4.571-3.475 0-.985-1.093-1.453-3.396-1.453-2.985 0-3.788.611-6.637 5.052M91.12 151l-3.214 4H96.091l-.678-3.75c-.373-2.062-.768-3.862-.879-4-.11-.137-1.646 1.551-3.414 3.75m-3.924 6.744c-2.403.21-4.535.975-4.825 1.732-1.349 3.515-8.385 6.542-24.621 10.593-17.579 4.386-17.924 4.559-14.791 7.394 1.802 1.631 2.78 1.674 12.25.545 31.795-3.792 36.835-6.04 37.946-16.925.383-3.756.17-3.875-5.959-3.339m-70.362 13.749c1.718 1.279 2.629 1.444 3.45.623.821-.821.688-1.116-.502-1.116-.89 0-2.443-.28-3.45-.623-1.301-.442-1.155-.119.502 1.116m18.206 22.553c1.838 1.163 4.96 1.23 4.96.106 0-.466-1.445-.889-3.21-.939-2.33-.066-2.81.162-1.75.833" fill-rule="evenodd"/>
<path fill="#e9f7f5" stroke="#e9f7f5" d="M34.448 7.462c-6.556 2.774-10.705 16.994-6.585 22.567l2.155 2.915-4.623 11.554c-2.543 6.355-6.566 14.511-8.94 18.125-5.162 7.859-5.876 16.461-1.033 12.442 3.009-2.498 6.034.573 15.009 15.238l8.891 14.528 8.089-3.035c12.442-4.669 14.551-5.244 15.462-4.221.453.509 2.928 6.956 5.5 14.328l4.675 13.404-2.023 1.884c-1.113 1.037-2.974 3.781-4.137 6.097-1.163 2.317-3.029 5.211-4.148 6.433l-2.034 2.221 2.24 1.814 2.241 1.813-2.236 3.79c-2.176 3.688-2.359 3.775-6.844 3.245-15.753-1.863-36.076-1.848-36.665.026-.323 1.028-1.904 5.386-3.514 9.684-3.657 9.761-3.728 9.095 1.289 12.087 4.568 2.724 5.714 2.25 5.798-2.401.025-1.417 1.657-4.325 3.765-6.711l3.72-4.211 14.5 1.939c7.975 1.067 15.377 1.949 16.45 1.961 4.565.051-.758 2.12-13.45 5.228l-13.5 3.305-.637 5.495c-.35 3.021-.97 7.855-1.378 10.741l-.742 5.248 3.596 1.502c5.729 2.394 6.661 2.049 6.661-2.47 0-2.186.943-5.914 2.095-8.285l2.095-4.312 16.37-2.259c22.062-3.043 25.731-4.21 29.468-9.368 1.634-2.257 2.972-4.681 2.972-5.388 0-.707.535-2.552 1.188-4.1.786-1.862 1.245-10.771 1.356-26.315.092-12.925.512-28.352.933-34.281l.766-10.782 8.629-7.577c5.585-4.904 14.623-11.122 25.628-17.632 9.35-5.53 18.012-10.96 19.25-12.066 4.229-3.779 1.844-8.801-3.108-6.545-1.879.856-2.943.878-3.903.081-1.014-.842-1.984-.264-4.182 2.491-3.807 4.771-23.439 14.071-38.572 18.271-6.183 1.716-12.738 3.746-14.568 4.51-4.422 1.848-5.91-1.252-2.396-4.993 8.409-8.95-2.532-26.633-13.613-22.003-6.428 2.686-8.252 11.758-3.896 19.378 3.534 6.182 3.352 9.799-.537 10.654-1.736.381-4.187 2.141-5.75 4.129-1.616 2.056-6.183 5.286-11.225 7.94l-8.5 4.475-3.358-3.775c-1.846-2.076-6.86-7.953-11.141-13.06l-7.784-9.284 1.28-4.216c4.502-14.824 10.05-26.1 13.251-26.929 8.161-2.115 13.401-18.917 7.482-23.997-2.734-2.347-4.615-2.668-7.782-1.327m32.266 4.663c-6.183 8.978-4.458 11.453 5.008 7.184 3.178-1.433 5.978-2.776 6.221-2.984.244-.208-.881-1.631-2.5-3.162-1.618-1.531-3.409-3.604-3.979-4.607-.916-1.614-1.464-1.202-4.75 3.569m-33.626-1.219C26.416 18.048 26.661 31 33.468 31c5.849 0 11.588-13.225 8.382-19.316-2.397-4.554-5.017-4.787-8.762-.778m35.317 2.24c-1.895 2.134-1.893 2.139.345.964 1.237-.649 2.25-1.615 2.25-2.145 0-1.421-.479-1.203-2.595 1.181m2.074 2.878c-2.037 2.25-.782 2.649 1.981.629 1.097-.803 1.431-1.602.825-1.977-.56-.346-1.823.261-2.806 1.348m2.631 29.397C63.937 50.408 68.118 67 78.548 67c4.065 0 7.46-3.644 8.144-8.739 1.15-8.579-7.091-16.37-13.582-12.84m68.752 5.07C138.466 54.37 117.125 63.987 103 68.004c-5.775 1.642-11.07 3.202-11.766 3.466-.877.332-.227 1.948 2.117 5.255 1.861 2.626 3.783 6.017 4.27 7.534l.885 2.759 7.997-7.079c4.802-4.251 13.989-10.614 22.997-15.929 23.791-14.036 27.219-17.001 19.307-16.695-3.426.133-4.851.784-6.945 3.176M19.643 67.513c.32.832.035 2.171-.633 2.975-.996 1.2-.741 1.677 1.418 2.661 1.76.802 5.343 5.649 10.822 14.641 4.505 7.393 8.698 13.636 9.318 13.874 1.191.457 20.096-6.263 22.116-7.862 1.645-1.302 4.382-13.861 3.403-15.611-.624-1.115-1.374-.681-3.383 1.953-1.7 2.228-5.69 4.908-11.678 7.843l-9.096 4.459-2.215-2.64C18.259 64.235 18.48 64.481 19.643 67.513m-4.652.998c-1.005 1.211-.944 1.489.328 1.489 1.866 0 3.087-1.631 1.811-2.42-.497-.307-1.459.112-2.139.931M73 71.81c0 5.835 3.034 8.302 6.774 5.509 3.896-2.908 3.916-7.958.031-7.505-1.483.173-3.62-.18-4.75-.785C73.146 68.008 73 68.205 73 71.81m-1.679 57.355c-.586.734-2.177 3.686-3.535 6.56l-2.47 5.224 3.092.923c1.701.508 4.442.856 6.092.775 2.287-.112 3.078.328 3.327 1.853.201 1.23 2.125 2.873 5 4.269l4.673 2.27 3.75-4.148c5.222-5.776 5.645-13.891.725-13.891-1.664 0-5.601-.952-8.75-2.116-7.831-2.894-10.643-3.3-11.904-1.719m-.1 15.651c-2.59.249-3.849 1.195-5.991 4.5-3.552 5.481-4.02 5.762-8.73 5.223-12.932-1.48-30.5-1.63-30.5-.26 0 4.036 8.487 6.057 36.415 8.673 11.42 1.069 13.465.444 18.495-5.659 4.011-4.866 3.903-5.751-.944-7.69-2.219-.888-4.357-2.399-4.75-3.359-.519-1.265-1.617-1.657-3.995-1.428m20.571 5.221-3.708 4.463 3.559.316c4.467.398 4.548.301 4.17-4.925l-.313-4.318-3.708 4.464m-7.292 7.908c-1.1.451-2.899 1.818-3.998 3.039-3.136 3.487-6.146 4.651-22.932 8.873-17.777 4.471-17.573 4.373-14.981 7.254 2.263 2.514 8.393 2.278 29.28-1.13 16.346-2.667 20.197-5.285 21.712-14.765l.675-4.216-3.878.063c-2.133.035-4.778.432-5.878.882M15 169.972c0 .78 4.406 4.028 5.465 4.028 1.857 0 .018-2.757-2.465-3.694-1.65-.623-3-.773-3-.334m19.288 23.393C34.84 195.02 40 196.07 40 194.527c0-.715-1.362-1.5-3.027-1.744-1.804-.265-2.889-.03-2.685.582" fill-rule="evenodd"/>
<path fill="#164a40" stroke="#164a40" d="M33.375 8.772c-6.034 4.906-8.226 13.59-5.133 20.333 2.03 4.423 2.276 4.607 5.083 3.802 8.744-2.508 14.302-17.417 8.712-23.368-2.771-2.949-5.663-3.205-8.662-.767m-.122 1.669c-4.774 4.016-7.028 15.642-3.682 18.988 3.883 3.882 10.009.255 12.26-7.258 3.265-10.897-1.624-17.582-8.578-11.73m33.43 3.116c-5.5 7.872-3.662 9.493 5.5 4.85l5.117-2.593-2.543-2.157c-1.399-1.186-2.932-2.918-3.407-3.849-.717-1.403-1.513-.763-4.667 3.749m1.558-.571C66.41 15.917 66.73 16.554 69 14.5c2.031-1.838 2.62-3.5 1.241-3.5-.418 0-1.318.894-2 1.986m1.62 2.981c-2.586 2.154-1.466 2.594 2.634 1.035 1.444-.549 2.347-1.449 2.006-2-.906-1.466-1.993-1.24-4.64.965m-5.351 3.049c.346.559 1.047.758 1.559.441C67.456 18.6 67.198 18 65.441 18c-.857 0-1.276.457-.931 1.016m7.731 25.309c-5.907 3.281-7.443 10.143-3.801 16.978C71.79 67.589 71.982 74 68.82 74c-1.286 0-3.85 1.791-6.25 4.365C58.82 82.387 45.853 90 42.754 90c-1.067 0-9.28-9.153-20.637-23-1.128-1.375-2.065-2.096-2.084-1.603-.027.735 12.254 15.765 16.626 20.348.653.684 2.147 2.464 3.319 3.954l2.132 2.71 9.544-4.954c6.53-3.39 9.995-5.824 10.971-7.705 1.735-3.345 4.38-3.648 4.363-.5-.019 3.581-2.772 12.97-4.192 14.298-.713.666-5.121 2.667-9.796 4.446a9802.414 9802.414 0 0 0-10.651 4.058c-1.937.741-2.831-.31-9-10.586-3.767-6.275-7.238-11.422-7.714-11.437-.476-.016-.206.984.599 2.221.805 1.237 4.079 6.525 7.276 11.75s5.945 9.667 6.106 9.872c.162.204 5.079-1.484 10.928-3.75 5.85-2.267 11.157-4.119 11.796-4.115 1.186.007 10.673 26.049 10.665 29.274-.003.98-.657 2.032-1.453 2.338-.797.305-2.899 3.441-4.671 6.968-1.772 3.527-3.665 6.413-4.207 6.413-.541 0-.239.823.671 1.829 2.097 2.317 2.08 3.636-.095 7.353l-1.75 2.99-11-.604a4430.97 4430.97 0 0 1-20.75-1.194c-7.827-.473-9.757-.322-9.783.768-.018.747-1.535 5.305-3.37 10.129l-3.337 8.77 4.12 2.463 4.12 2.462.771-3.733c.424-2.053 2.253-5.487 4.063-7.632l3.293-3.898 13.936 1.701c25.122 3.066 25.225 3.217 5.53 8.037-7.185 1.758-13.308 3.441-13.607 3.74-.396.395-3.486 18.47-3.486 20.388 0 .63 9.013 3.223 9.106 2.62.058-.379.029-1.883-.065-3.343-.095-1.46.969-4.906 2.363-7.657 2.809-5.542 1.597-5.071 18.596-7.233 10.618-1.351 22.888-3.826 25.262-5.096 2.964-1.587 7.738-8.959 7.738-11.951 0-1.535.377-3.024.839-3.309.461-.286 1.145-14.927 1.52-32.537s.95-33.359 1.278-34.998c.982-4.912 16.326-17.247 35.951-28.902 18.344-10.894 21.553-13.422 19.564-15.411-2.709-2.709-9.39-1.492-12.853 2.34-2.12 2.346-6.556 5.087-12.787 7.902-5.247 2.371-9.361 4.49-9.142 4.71.22.219 3.859-1.199 8.088-3.153 4.228-1.953 8.006-3.551 8.394-3.551.389 0 2.444-1.687 4.567-3.75 2.342-2.274 4.888-3.784 6.471-3.836 1.435-.048 3.397-.434 4.36-.857 1.335-.588 1.75-.304 1.75 1.2 0 2.282-1.813 3.554-22.471 15.757-9.412 5.561-18.083 11.614-23.355 16.304-8.121 7.226-10.094 7.939-10.159 3.669-.008-.558-1.586-3.346-3.506-6.197-1.92-2.851-3.149-5.394-2.732-5.652.417-.258 6.35-2.079 13.183-4.046 6.834-1.967 12.901-4.097 13.483-4.732.784-.856.54-.956-.943-.386-1.1.423-6.95 2.238-13 4.034-6.05 1.796-12.315 3.784-13.922 4.419-1.608.635-3.52.925-4.25.645-1.79-.687-1.688-5.029.155-6.558 8.977-7.45-3.101-26.321-13.242-20.689m.036 1.648c-9.714 5.923-1.45 25.241 8.954 20.931 7.797-3.229 7.626-16.603-.271-21.268-3.558-2.102-4.759-2.056-8.683.337m-52.06 11.835c-.558 1.6-2.58 4.96-4.493 7.467-4.597 6.022-4.252 9.847.814 9.025 2.744-.445 3.788-.051 5.898 2.226C23.846 78.047 25 78.861 25 78.335 25 76.57 20.944 73 18.938 73c-1.877 0-1.897-.133-.375-2.456.885-1.351 1.366-2.85 1.069-3.33-.297-.481.097-3.293.877-6.248 1.537-5.826 1.348-7.864-.292-3.158m-5.145 10.057c-.927 1.732-.864 2.135.334 2.135 1.949 0 2.66-1.275 1.636-2.933-.64-1.034-1.086-.853-1.97.798m57.716 3.823C72.331 75.604 74.542 79 77.548 79c2.154 0 6.64-5.069 5.988-6.767-.295-.768-.536-1.782-.536-2.252 0-.471-1.758-.831-3.907-.802-2.149.03-4.35-.22-4.891-.554-.555-.343-1.172.994-1.414 3.063m-.158 56.499c-.913.511-3.013 3.61-4.667 6.887l-3.008 5.958 2.762 1.051c1.519.577 4.229.774 6.023.438 2.804-.526 3.26-.33 3.26 1.403 0 1.449 1.545 2.771 5.503 4.709l5.502 2.694 3.456-3.913c1.901-2.153 3.505-4.364 3.565-4.914.061-.55.192-2.864.292-5.141l.182-4.141-4.614-.546c-2.538-.3-7.311-1.641-10.605-2.98-4.181-1.699-6.492-2.153-7.651-1.505m-7.713 21.102-3.065 4.981-17.926-.718c-15.647-.627-17.926-.526-17.926.793 0 3.945 2.342 4.793 19.5 7.054 28.298 3.731 30.932 3.317 37.155-5.842l2.412-3.55-4.495-2.184c-2.472-1.201-4.625-2.832-4.783-3.624-.18-.894-1.714-1.525-4.048-1.666-3.517-.211-3.955.094-6.824 4.756m27.021-.039c-4.435 5.624-4.435 5.75.003 5.75H96v-4.5c0-5.357-.663-5.561-4.062-1.25m-10.784 10.829c-3.35 4.239-5.758 5.216-23.531 9.549-9.617 2.345-16.086 4.414-16.406 5.249-.823 2.145 3.722 4.993 7.232 4.531 35.365-4.655 38.622-5.46 42.041-10.393 1.474-2.128 2.927-5.702 3.227-7.942l.546-4.073-5.381.055c-4.742.049-5.661.409-7.728 3.024M15 169.972c0 .78 4.406 4.028 5.465 4.028 1.857 0 .018-2.757-2.465-3.694-1.65-.623-3-.773-3-.334m18.457 23.097c-.25.405.962 1.23 2.693 1.834 3.934 1.371 3.85 1.377 3.85-.29 0-1.462-5.754-2.82-6.543-1.544" fill-rule="evenodd"/>
</svg>